<svg width="1204" height="830" viewBox="0 0 1204 830" fill="none" xmlns="http://www.w3.org/2000/svg">
<path fill-rule="evenodd" clip-rule="evenodd" d="M361.617 0.813562C453.385 -5.90023 549.823 29.0773 607.677 100.627C661.785 167.545 648.84 260.962 641.285 346.686C634.626 422.246 619.842 497.686 567.819 552.888C514.295 609.68 439.153 634.591 361.617 643.438C271.412 653.73 172.366 663.741 102.3 606.003C27.8986 544.692 -8.01389 442.624 1.50345 346.686C10.3546 257.464 84.4424 196.284 149.107 134.176C211.81 73.9532 274.91 7.15713 361.617 0.813562Z" fill="#FD8232"/>
<path fill-rule="evenodd" clip-rule="evenodd" d="M971.501 71.7038C1053.67 78.0404 1129.77 119.717 1175.59 188.223C1217.25 250.515 1203.79 327.29 1191.93 401.287C1178.45 485.468 1176.82 582.283 1105.07 628.337C1026.19 678.971 916.463 679.58 837.797 628.614C766.291 582.287 773.58 483.536 753.693 400.688C733.301 315.735 675.492 226.225 723.722 153.377C774.231 77.0875 880.277 64.6691 971.501 71.7038Z" fill="#4C2BC0"/>
<path fill-rule="evenodd" clip-rule="evenodd" d="M706.521 51.2221C753.573 53.5652 802.654 52.7527 842.352 78.119C882.095 103.514 898.061 150.761 923.972 190.169C955.156 237.598 1005.46 276.532 1010.01 333.111C1014.85 393.217 986.098 452.036 948.862 499.465C910.55 548.264 855.923 579.193 798.455 602.574C735.936 628.012 662.911 672.183 603.617 639.935C541.895 606.365 545.999 516.381 519.978 451.117C502.89 408.256 493.749 365.482 477.046 322.47C454.073 263.313 383.695 211.377 403.459 151.072C422.59 92.6982 503.365 83.3655 561.709 64.143C608.689 48.6645 657.118 48.7618 706.521 51.2221Z" fill="#2D9DE7"/>
</svg>
