<svg width="44" height="30" viewBox="0 0 44 30" fill="none" xmlns="http://www.w3.org/2000/svg">
<g clip-path="url(#clip0_84_80)">
<path d="M42.1505 25.3155C41.6608 27.1594 40.2181 28.6115 38.3858 29.1044C35.0654 30 21.7499 30 21.7499 30C21.7499 30 8.43459 30 5.11402 29.1044C3.28172 28.6115 1.83863 27.1594 1.34925 25.3155C0.459595 21.9733 0.459595 14.9999 0.459595 14.9999C0.459595 14.9999 0.459595 8.02689 1.34925 4.68437C1.83863 2.84027 3.28172 1.38848 5.11384 0.895107C8.43441 -0.000176728 21.7497 -0.000179291 21.7497 -0.000179291C21.7497 -0.000179291 35.0652 -0.000176728 38.3856 0.895107C40.2179 1.38829 41.6606 2.84027 42.1504 4.68419C43.0402 8.02671 43.0402 14.9997 43.0402 14.9997C43.0402 14.9997 43.0404 21.9733 42.1505 25.3155Z" fill="#7C7C7C"/>
<path d="M17.395 8.66869L28.524 14.9995L17.395 21.3311V8.66869Z" fill="white"/>
</g>
<defs>
<clipPath id="clip0_84_80">
<rect width="43.5" height="30" fill="white" transform="matrix(1 0 0 -1 0 30)"/>
</clipPath>
</defs>
</svg>
